<svg width="20" height="20" viewBox="0 0 20 20" fill="none" xmlns="http://www.w3.org/2000/svg">
<path d="M13.9625 1.66666H6.03751C5.07179 1.66666 4.58892 1.66666 4.19949 1.80216C3.46102 2.05912 2.88123 2.65598 2.63163 3.41621C2.5 3.81711 2.5 4.3142 2.5 5.30837V16.9785C2.5 17.6937 3.32083 18.0731 3.84008 17.598C4.14514 17.3188 4.60486 17.3188 4.90992 17.598L5.3125 17.9664C5.84716 18.4556 6.65284 18.4556 7.1875 17.9664C7.72216 17.4771 8.52784 17.4771 9.0625 17.9664C9.59716 18.4556 10.4028 18.4556 10.9375 17.9664C11.4722 17.4771 12.2778 17.4771 12.8125 17.9664C13.3472 18.4556 14.1528 18.4556 14.6875 17.9664L15.0901 17.598C15.3951 17.3188 15.8549 17.3188 16.1599 17.598C16.6792 18.0731 17.5 17.6937 17.5 16.9785V5.30837C17.5 4.3142 17.5 3.81711 17.3684 3.41621C17.1188 2.65598 16.539 2.05912 15.8005 1.80216C15.4111 1.66666 14.9282 1.66666 13.9625 1.66666Z" stroke="#313638" stroke-width="1.5"/>
<path d="M8.75 9.16666L14.1667 9.16666" stroke="#313638" stroke-width="1.5" stroke-linecap="round"/>
<path d="M5.83337 9.16666H6.25004" stroke="#313638" stroke-width="1.5" stroke-linecap="round"/>
<path d="M5.83337 6.25H6.25004" stroke="#313638" stroke-width="1.5" stroke-linecap="round"/>
<path d="M5.83337 12.0833H6.25004" stroke="#313638" stroke-width="1.5" stroke-linecap="round"/>
<path d="M8.75 6.25H14.1667" stroke="#313638" stroke-width="1.5" stroke-linecap="round"/>
<path d="M8.75 12.0833H14.1667" stroke="#313638" stroke-width="1.5" stroke-linecap="round"/>
</svg>
