<svg width="20" height="20" viewBox="0 0 20 20" fill="none" xmlns="http://www.w3.org/2000/svg">
<g clip-path="url(#clip0_2_528)">
<path d="M1.66663 9.99999C1.66663 6.07162 1.66663 4.10743 2.88701 2.88704C4.1074 1.66666 6.07159 1.66666 9.99996 1.66666C13.9283 1.66666 15.8925 1.66666 17.1129 2.88704C18.3333 4.10743 18.3333 6.07162 18.3333 9.99999C18.3333 13.9284 18.3333 15.8925 17.1129 17.1129C15.8925 18.3333 13.9283 18.3333 9.99996 18.3333C6.07159 18.3333 4.1074 18.3333 2.88701 17.1129C1.66663 15.8925 1.66663 13.9284 1.66663 9.99999Z" stroke="#313638" stroke-width="1.5"/>
<path d="M17.9167 6.66666H2.08337" stroke="#313638" stroke-width="1.5" stroke-linecap="round"/>
<path d="M8.75004 2.08334L5.83337 6.66668" stroke="#313638" stroke-width="1.5" stroke-linecap="round"/>
<path d="M14.1667 2.08334L11.25 6.66668" stroke="#313638" stroke-width="1.5" stroke-linecap="round"/>
<path d="M12.5 12.0833C12.5 11.5555 11.9484 11.1996 10.845 10.4877C9.72659 9.76606 9.16738 9.40524 8.75038 9.67016C8.33337 9.93509 8.33337 10.6512 8.33337 12.0833C8.33337 13.5155 8.33337 14.2316 8.75038 14.4965C9.16738 14.7614 9.72659 14.4006 10.845 13.679C11.9484 12.9671 12.5 12.6111 12.5 12.0833Z" stroke="#313638" stroke-width="1.5" stroke-linecap="round"/>
</g>
<defs>
<clipPath id="clip0_2_528">
<rect width="20" height="20" fill="white"/>
</clipPath>
</defs>
</svg>
