<svg width="20" height="20" viewBox="0 0 20 20" fill="none" xmlns="http://www.w3.org/2000/svg">
<g id="Linear / Video, Audio, Sound / Gallery" clip-path="url(#clip0_2_525)">
<path id="Vector" d="M1.66663 9.99999C1.66663 6.07162 1.66663 4.10743 2.88701 2.88704C4.1074 1.66666 6.07159 1.66666 9.99996 1.66666C13.9283 1.66666 15.8925 1.66666 17.1129 2.88704C18.3333 4.10743 18.3333 6.07162 18.3333 9.99999C18.3333 13.9284 18.3333 15.8925 17.1129 17.1129C15.8925 18.3333 13.9283 18.3333 9.99996 18.3333C6.07159 18.3333 4.1074 18.3333 2.88701 17.1129C1.66663 15.8925 1.66663 13.9284 1.66663 9.99999Z" stroke="#313638" stroke-width="1.5"/>
<circle id="Vector_2" cx="13.3333" cy="6.66667" r="1.66667" stroke="#313638" stroke-width="1.5"/>
<path id="Vector_3" d="M1.66663 10.4168L3.12628 9.1396C3.88567 8.47514 5.03019 8.51325 5.7437 9.22676L9.31847 12.8015C9.89116 13.3742 10.7927 13.4523 11.4553 12.9866L11.7038 12.812C12.6573 12.1418 13.9474 12.2195 14.8137 12.9991L17.5 15.4168" stroke="#313638" stroke-width="1.5" stroke-linecap="round"/>
</g>
<defs>
<clipPath id="clip0_2_525">
<rect width="20" height="20" fill="white"/>
</clipPath>
</defs>
</svg>
