<svg width="18" height="18" viewBox="0 0 18 18" fill="none" xmlns="http://www.w3.org/2000/svg">
<path fill-rule="evenodd" clip-rule="evenodd" d="M9.00014 2.0625C8.26627 2.0625 7.64045 2.53127 7.40852 3.18745C7.305 3.48035 6.98363 3.63387 6.69072 3.53035C6.39782 3.42682 6.2443 3.10545 6.34783 2.81255C6.73365 1.72094 7.77469 0.9375 9.00014 0.9375C10.2256 0.9375 11.2666 1.72094 11.6525 2.81255C11.756 3.10545 11.6025 3.42682 11.3096 3.53035C11.0167 3.63387 10.6953 3.48035 10.5918 3.18745C10.3598 2.53127 9.73401 2.0625 9.00014 2.0625Z" fill="#1C274D"/>
<path d="M10.5 9.375H7.5C7.29289 9.375 7.125 9.54289 7.125 9.75V11.3711C7.125 11.5245 7.21836 11.6623 7.36073 11.7193L7.88583 11.9293C8.60106 12.2154 9.39894 12.2154 10.1142 11.9293L10.6393 11.7193C10.7816 11.6623 10.875 11.5245 10.875 11.3711V9.75C10.875 9.54289 10.7071 9.375 10.5 9.375Z" fill="#4D451C"/>
<path d="M6.00807 11.5269L2.25439 10.4008C2.27696 12.7366 2.41342 14.8879 3.23844 15.6212C4.22695 16.4999 5.81794 16.4999 8.99992 16.4999C12.1819 16.4999 13.7729 16.4999 14.7614 15.6212C15.5864 14.8879 15.7229 12.7366 15.7454 10.4008L11.9919 11.5268C11.9348 12.0764 11.5779 12.5555 11.0571 12.7638L10.532 12.9739C9.54854 13.3672 8.45146 13.3672 7.46801 12.9739L6.94291 12.7638C6.4221 12.5555 6.06526 12.0764 6.00807 11.5269Z" fill="#6FD1CC"/>
<path d="M5.7067 3.75H12.2933C14.1309 3.75 15.0497 3.75 15.6701 4.25474C15.7893 4.35175 15.8983 4.46072 15.9953 4.57995C16.5 5.20027 16.5 6.11908 16.5 7.9567C16.5 8.42299 16.5 8.65613 16.3869 8.838C16.3649 8.87343 16.3399 8.90696 16.3123 8.93824C16.1706 9.09881 15.9473 9.1658 15.5007 9.29979L12 10.35V9.75C12 8.92157 11.3284 8.25 10.5 8.25H7.5C6.67157 8.25 6 8.92157 6 9.75V10.35L2.4993 9.29979C2.05268 9.1658 1.82936 9.09881 1.68766 8.93824C1.66006 8.90696 1.63511 8.87343 1.61308 8.838C1.5 8.65613 1.5 8.42299 1.5 7.9567C1.5 6.11908 1.5 5.20027 2.00474 4.57995C2.10175 4.46072 2.21072 4.35175 2.32995 4.25474C2.95027 3.75 3.86908 3.75 5.7067 3.75Z" fill="#6FD1CC"/>
</svg>
