<svg width="147" height="32" viewBox="0 0 147 32" fill="none" xmlns="http://www.w3.org/2000/svg">
<path d="M24 28C17.3833 28 12.0001 22.6169 12.0001 16C12.0001 9.38313 17.3833 4 24 4C30.6169 4 35.9999 9.38313 35.9999 16C35.9999 22.6169 30.6169 28 24 28ZM24 4.7151C17.7776 4.7151 12.7152 9.77746 12.7152 16C12.7152 22.2225 17.7776 27.2849 24 27.2849C30.2225 27.2849 35.2848 22.2225 35.2848 16C35.2848 9.77746 30.2225 4.7151 24 4.7151Z" fill="#A3E1DE"/>
<path d="M24.0026 27.4546C17.6866 27.4546 12.5481 22.3161 12.5481 16C12.5481 9.68391 17.6866 4.54547 24.0026 4.54547C30.3188 4.54547 35.4572 9.68391 35.4572 16C35.4572 22.3161 30.3188 27.4546 24.0026 27.4546ZM24.0026 5.22807C18.063 5.22807 13.2307 10.0603 13.2307 16C13.2307 21.9397 18.063 26.772 24.0026 26.772C29.9423 26.772 34.7746 21.9397 34.7746 16C34.7746 10.0603 29.9423 5.22807 24.0026 5.22807Z" fill="#A3E1DE"/>
<path d="M26.0373 12.3663C25.8568 12.1858 25.6161 12.0863 25.3596 12.0863C25.1032 12.0863 24.8625 12.1858 24.682 12.3663L20.164 16.8843C19.9835 17.0649 19.884 17.3056 19.884 17.562C19.884 17.8185 19.9834 18.0592 20.164 18.2398L21.9712 20.047C22.158 20.2338 22.4034 20.3272 22.6488 20.3272C22.8943 20.3272 23.1398 20.2338 23.3266 20.047L27.8445 15.5289C28.2183 15.1552 28.2183 14.5472 27.8445 14.1735L26.0373 12.3663ZM27.3928 15.0772L22.8748 19.5951C22.7502 19.7197 22.5475 19.7197 22.423 19.5951L20.6157 17.7879C20.4912 17.6634 20.4912 17.4607 20.6157 17.3362L25.1337 12.8181C25.196 12.7558 25.2779 12.7246 25.3596 12.7246C25.4414 12.7246 25.5233 12.7558 25.5856 12.8181L27.3928 14.6252C27.5173 14.7499 27.5173 14.9526 27.3928 15.0771V15.0772Z" fill="#A3E1DE"/>
<path d="M22.9869 18.1267C22.8621 18.002 22.6599 18.002 22.5352 18.1268C22.4105 18.2516 22.4105 18.454 22.5352 18.5787C22.5976 18.6411 22.6794 18.6723 22.7611 18.6723C22.8429 18.6723 22.9246 18.6411 22.987 18.5787C23.1118 18.454 23.1118 18.2517 22.987 18.1269L22.9869 18.1267Z" fill="#A3E1DE"/>
<path d="M22.0758 17.2231C21.951 17.0984 21.7489 17.0984 21.624 17.2232C21.4993 17.3479 21.4994 17.5504 21.6241 17.6751C21.6865 17.7375 21.7683 17.7686 21.85 17.7686C21.9318 17.7686 22.0135 17.7375 22.0759 17.6751C22.2007 17.5504 22.2007 17.348 22.0759 17.2232L22.0758 17.2231Z" fill="#A3E1DE"/>
<path d="M24.1224 17.0082C24.0037 16.8777 23.8017 16.8681 23.6712 16.9868C23.5406 17.1054 23.5311 17.3076 23.6498 17.4382C23.7128 17.5075 23.7993 17.5428 23.8862 17.5428C23.9629 17.5428 24.0398 17.5153 24.101 17.4596C24.2316 17.3409 24.2412 17.1389 24.1225 17.0083L24.1224 17.0082Z" fill="#A3E1DE"/>
<path d="M23.2094 16.0935C23.0847 15.9688 22.8825 15.9689 22.7577 16.0937C22.6329 16.2184 22.6331 16.4208 22.7578 16.5456C22.8202 16.6079 22.9019 16.6392 22.9837 16.6392C23.0655 16.6392 23.1472 16.6079 23.2096 16.5456C23.3344 16.4208 23.3344 16.2185 23.2096 16.0937L23.2094 16.0935Z" fill="#A3E1DE"/>
<path d="M25.2399 15.8677C25.1151 15.7429 24.9129 15.743 24.7881 15.8677C24.6634 15.9925 24.6634 16.1949 24.7882 16.3197C24.8506 16.382 24.9323 16.4132 25.014 16.4132C25.0958 16.4132 25.1776 16.382 25.24 16.3197C25.3647 16.1949 25.3647 15.9926 25.24 15.8678L25.2399 15.8677Z" fill="#A3E1DE"/>
<path d="M26.3707 14.7382C26.2459 14.6134 26.0438 14.6135 25.919 14.7383C25.7942 14.863 25.7943 15.0654 25.919 15.1901C25.9815 15.2526 26.0631 15.2837 26.1449 15.2837C26.2267 15.2837 26.3085 15.2526 26.3709 15.1901C26.4956 15.0654 26.4956 14.8631 26.3709 14.7383L26.3707 14.7382Z" fill="#A3E1DE"/>
<path d="M24.3315 14.9538L24.3314 14.9536C24.2008 14.8349 23.9989 14.8446 23.8802 14.9751C23.7615 15.1057 23.7712 15.3079 23.9017 15.4265C23.9629 15.4822 24.0398 15.5096 24.1166 15.5096C24.2034 15.5096 24.29 15.4743 24.353 15.4051C24.4717 15.2745 24.462 15.0724 24.3315 14.9538Z" fill="#A3E1DE"/>
<path d="M25.4818 13.8456C25.3631 13.7151 25.1611 13.7055 25.0306 13.8242C24.9 13.9428 24.8904 14.145 25.0092 14.2756C25.0723 14.3449 25.1588 14.3802 25.2457 14.3802C25.3223 14.3802 25.3992 14.3527 25.4605 14.297C25.591 14.1783 25.6007 13.9763 25.482 13.8457L25.4818 13.8456Z" fill="#A3E1DE"/>
<path d="M29.1477 16.2066L31.629 13.7254C32.3629 12.9916 32.3629 11.7975 31.629 11.0637L29.1428 8.57752C28.409 7.84371 27.2149 7.84371 26.4811 8.57752L23.9999 11.0587L21.5186 8.57752C20.7848 7.84371 19.5907 7.84371 18.8569 8.57752L16.3708 11.0637C15.637 11.7975 15.637 12.9916 16.3708 13.7254L18.8521 16.2066L16.3708 18.6879C15.637 19.4217 15.637 20.6158 16.3708 21.3496L18.8569 23.8357C19.2239 24.2027 19.7058 24.3861 20.1878 24.3861C20.6698 24.3861 21.1518 24.2027 21.5186 23.8357L23.9998 21.3545L26.4811 23.8357C26.848 24.2027 27.33 24.3861 27.812 24.3861C28.2939 24.3861 28.7759 24.2027 29.1428 23.8357L31.629 21.3496C32.3629 20.6157 32.3629 19.4217 31.629 18.6879L29.1477 16.2066ZM16.8226 13.2736C16.589 13.0399 16.4604 12.7278 16.4604 12.3945C16.4604 12.0613 16.589 11.7491 16.8226 11.5154L19.3088 9.02927C19.5424 8.7957 19.8545 8.66711 20.1879 8.66711C20.5211 8.66711 20.8333 8.7957 21.0669 9.02927L23.5482 11.5106L19.3039 15.7548L16.8226 13.2736ZM21.0669 23.3839C20.5821 23.8687 19.7935 23.8687 19.3088 23.3839L16.8226 20.8978C16.338 20.4131 16.338 19.6244 16.8226 19.1397L26.933 9.02934C27.1753 8.78696 27.4936 8.66581 27.812 8.66581C28.1303 8.66581 28.4487 8.78696 28.691 9.02934L31.1772 11.5155C31.4108 11.7491 31.5395 12.0613 31.5395 12.3946C31.5395 12.7278 31.4108 13.04 31.1772 13.2736L21.0669 23.3839ZM31.1772 20.8978L28.691 23.3839C28.2064 23.8687 27.4176 23.8687 26.933 23.3839L24.4516 20.9027L28.6959 16.6584L31.1772 19.1396C31.6619 19.6244 31.6619 20.4131 31.1772 20.8978Z" fill="#A3E1DE"/>
<path d="M53.2319 22V10.08H54.9919L59.4719 16.288H58.5919L62.9919 10.08H64.7519V22H62.8799V12.304L63.5839 12.496L59.0879 18.64H58.8959L54.4959 12.496L55.1199 12.304V22H53.2319ZM71.1043 22.192C70.2403 22.192 69.4723 21.9947 68.8003 21.6C68.1389 21.1947 67.6216 20.6507 67.2483 19.968C66.8749 19.2747 66.6883 18.5013 66.6883 17.648C66.6883 16.7733 66.8749 16 67.2483 15.328C67.6323 14.656 68.1443 14.128 68.7843 13.744C69.4243 13.3493 70.1496 13.152 70.9603 13.152C71.6109 13.152 72.1923 13.264 72.7043 13.488C73.2163 13.712 73.6483 14.0213 74.0003 14.416C74.3523 14.8 74.6189 15.2427 74.8003 15.744C74.9923 16.2453 75.0883 16.7787 75.0883 17.344C75.0883 17.4827 75.0829 17.6267 75.0723 17.776C75.0616 17.9253 75.0403 18.064 75.0083 18.192H68.1123V16.752H73.9843L73.1203 17.408C73.2269 16.8853 73.1896 16.4213 73.0083 16.016C72.8376 15.6 72.5709 15.2747 72.2083 15.04C71.8563 14.7947 71.4403 14.672 70.9603 14.672C70.4803 14.672 70.0536 14.7947 69.6803 15.04C69.3069 15.2747 69.0189 15.616 68.8163 16.064C68.6136 16.5013 68.5336 17.0347 68.5763 17.664C68.5229 18.2507 68.6029 18.7627 68.8163 19.2C69.0403 19.6373 69.3496 19.9787 69.7443 20.224C70.1496 20.4693 70.6083 20.592 71.1203 20.592C71.6429 20.592 72.0856 20.4747 72.4483 20.24C72.8216 20.0053 73.1149 19.7013 73.3283 19.328L74.8003 20.048C74.6296 20.4533 74.3629 20.8213 74.0003 21.152C73.6483 21.472 73.2216 21.728 72.7203 21.92C72.2296 22.1013 71.6909 22.192 71.1043 22.192ZM80.8528 22.192C80.0208 22.192 79.2741 21.9947 78.6128 21.6C77.9621 21.1947 77.4448 20.6507 77.0608 19.968C76.6874 19.2853 76.5008 18.5173 76.5008 17.664C76.5008 16.8107 76.6928 16.0427 77.0768 15.36C77.4608 14.6773 77.9781 14.1387 78.6288 13.744C79.2794 13.3493 80.0154 13.152 80.8368 13.152C81.5301 13.152 82.1434 13.2907 82.6768 13.568C83.2101 13.8453 83.6314 14.2293 83.9408 14.72L83.6688 15.136V9.888H85.4608V22H83.7488V20.24L83.9568 20.576C83.6581 21.0987 83.2314 21.4987 82.6768 21.776C82.1221 22.0533 81.5141 22.192 80.8528 22.192ZM81.0288 20.512C81.5301 20.512 81.9781 20.3893 82.3728 20.144C82.7781 19.8987 83.0928 19.5627 83.3168 19.136C83.5514 18.6987 83.6688 18.208 83.6688 17.664C83.6688 17.12 83.5514 16.6347 83.3168 16.208C83.0928 15.7813 82.7781 15.4453 82.3728 15.2C81.9781 14.9547 81.5301 14.832 81.0288 14.832C80.5274 14.832 80.0741 14.9547 79.6688 15.2C79.2634 15.4453 78.9488 15.7813 78.7248 16.208C78.5008 16.6347 78.3888 17.12 78.3888 17.664C78.3888 18.208 78.5008 18.6987 78.7248 19.136C78.9488 19.5627 79.2581 19.8987 79.6528 20.144C80.0581 20.3893 80.5168 20.512 81.0288 20.512ZM87.7475 22V10.08H89.5075L93.9875 16.288H93.1075L97.5075 10.08H99.2675V22H97.3955V12.304L98.0995 12.496L93.6035 18.64H93.4115L89.0115 12.496L89.6355 12.304V22H87.7475ZM104.148 22.192C103.561 22.192 103.044 22.0907 102.596 21.888C102.159 21.6747 101.817 21.3867 101.572 21.024C101.327 20.6507 101.204 20.2133 101.204 19.712C101.204 19.2427 101.305 18.8213 101.508 18.448C101.721 18.0747 102.047 17.76 102.484 17.504C102.921 17.248 103.471 17.0667 104.132 16.96L107.14 16.464V17.888L104.484 18.352C104.004 18.4373 103.652 18.592 103.428 18.816C103.204 19.0293 103.092 19.3067 103.092 19.648C103.092 19.9787 103.215 20.2507 103.46 20.464C103.716 20.6667 104.041 20.768 104.436 20.768C104.927 20.768 105.353 20.6613 105.716 20.448C106.089 20.2347 106.377 19.952 106.58 19.6C106.783 19.2373 106.884 18.8373 106.884 18.4V16.176C106.884 15.7493 106.724 15.4027 106.404 15.136C106.095 14.8587 105.679 14.72 105.156 14.72C104.676 14.72 104.255 14.848 103.892 15.104C103.54 15.3493 103.279 15.6693 103.108 16.064L101.604 15.312C101.764 14.8853 102.025 14.512 102.388 14.192C102.751 13.8613 103.172 13.6053 103.652 13.424C104.143 13.2427 104.66 13.152 105.204 13.152C105.887 13.152 106.489 13.28 107.012 13.536C107.545 13.792 107.956 14.1493 108.244 14.608C108.543 15.056 108.692 15.5787 108.692 16.176V22H106.964V20.432L107.332 20.48C107.129 20.832 106.868 21.136 106.548 21.392C106.239 21.648 105.881 21.8453 105.476 21.984C105.081 22.1227 104.639 22.192 104.148 22.192ZM114.394 22.096C113.487 22.096 112.783 21.84 112.282 21.328C111.78 20.816 111.53 20.096 111.53 19.168V14.976H110.01V13.344H110.25C110.655 13.344 110.97 13.2267 111.194 12.992C111.418 12.7573 111.53 12.4373 111.53 12.032V11.36H113.338V13.344H115.306V14.976H113.338V19.088C113.338 19.3867 113.386 19.6427 113.482 19.856C113.578 20.0587 113.732 20.2187 113.946 20.336C114.159 20.4427 114.436 20.496 114.778 20.496C114.863 20.496 114.959 20.4907 115.066 20.48C115.172 20.4693 115.274 20.4587 115.37 20.448V22C115.22 22.0213 115.055 22.0427 114.874 22.064C114.692 22.0853 114.532 22.096 114.394 22.096ZM121.09 22.192C120.226 22.192 119.458 21.9947 118.786 21.6C118.124 21.1947 117.596 20.6507 117.202 19.968C116.818 19.2853 116.626 18.512 116.626 17.648C116.626 16.7947 116.818 16.0267 117.202 15.344C117.586 14.6613 118.114 14.128 118.786 13.744C119.458 13.3493 120.226 13.152 121.09 13.152C121.676 13.152 122.226 13.2587 122.738 13.472C123.25 13.6747 123.692 13.9573 124.066 14.32C124.45 14.6827 124.732 15.104 124.914 15.584L123.33 16.32C123.148 15.872 122.855 15.5147 122.45 15.248C122.055 14.9707 121.602 14.832 121.09 14.832C120.599 14.832 120.156 14.9547 119.762 15.2C119.378 15.4347 119.074 15.7707 118.85 16.208C118.626 16.6347 118.514 17.12 118.514 17.664C118.514 18.208 118.626 18.6987 118.85 19.136C119.074 19.5627 119.378 19.8987 119.762 20.144C120.156 20.3893 120.599 20.512 121.09 20.512C121.612 20.512 122.066 20.3787 122.45 20.112C122.844 19.8347 123.138 19.4667 123.33 19.008L124.914 19.76C124.743 20.2187 124.466 20.6347 124.082 21.008C123.708 21.3707 123.266 21.6587 122.754 21.872C122.242 22.0853 121.687 22.192 121.09 22.192ZM126.681 22V9.888H128.489V15.04L128.201 14.816C128.414 14.272 128.756 13.8613 129.225 13.584C129.694 13.296 130.238 13.152 130.857 13.152C131.497 13.152 132.062 13.2907 132.553 13.568C133.044 13.8453 133.428 14.2293 133.705 14.72C133.982 15.2107 134.121 15.7707 134.121 16.4V22H132.329V16.896C132.329 16.4587 132.244 16.0907 132.073 15.792C131.913 15.4827 131.689 15.248 131.401 15.088C131.113 14.9173 130.782 14.832 130.409 14.832C130.046 14.832 129.716 14.9173 129.417 15.088C129.129 15.248 128.9 15.4827 128.729 15.792C128.569 16.1013 128.489 16.4693 128.489 16.896V22H126.681Z" fill="#A3E1DE"/>
</svg>
