<svg width="131" height="48" viewBox="0 0 131 48" fill="none" xmlns="http://www.w3.org/2000/svg">
<rect width="131" height="48" rx="12" fill="#FFB2C5"/>
<path d="M24.176 30L28.368 18.08H30.704L34.896 30H32.88L31.968 27.328H27.12L26.192 30H24.176ZM27.664 25.648H31.392L29.28 19.408H29.808L27.664 25.648ZM36.2841 33.2V21.344H38.0121V23.136L37.8041 22.72C38.1241 22.2293 38.5508 21.8453 39.0841 21.568C39.6175 21.2907 40.2255 21.152 40.9081 21.152C41.7295 21.152 42.4655 21.3493 43.1161 21.744C43.7775 22.1387 44.2948 22.6773 44.6681 23.36C45.0521 24.0427 45.2441 24.8107 45.2441 25.664C45.2441 26.5173 45.0521 27.2853 44.6681 27.968C44.2948 28.6507 43.7828 29.1947 43.1321 29.6C42.4815 29.9947 41.7401 30.192 40.9081 30.192C40.2361 30.192 39.6228 30.0533 39.0681 29.776C38.5241 29.4987 38.1028 29.0987 37.8041 28.576L38.0921 28.24V33.2H36.2841ZM40.7321 28.512C41.2441 28.512 41.6975 28.3893 42.0921 28.144C42.4868 27.8987 42.7961 27.5627 43.0201 27.136C43.2548 26.6987 43.3721 26.208 43.3721 25.664C43.3721 25.12 43.2548 24.6347 43.0201 24.208C42.7961 23.7813 42.4868 23.4453 42.0921 23.2C41.6975 22.9547 41.2441 22.832 40.7321 22.832C40.2308 22.832 39.7775 22.9547 39.3721 23.2C38.9775 23.4453 38.6628 23.7813 38.4281 24.208C38.2041 24.6347 38.0921 25.12 38.0921 25.664C38.0921 26.208 38.2041 26.6987 38.4281 27.136C38.6628 27.5627 38.9775 27.8987 39.3721 28.144C39.7775 28.3893 40.2308 28.512 40.7321 28.512ZM47.1529 33.2V21.344H48.8809V23.136L48.6729 22.72C48.9929 22.2293 49.4195 21.8453 49.9529 21.568C50.4862 21.2907 51.0942 21.152 51.7769 21.152C52.5982 21.152 53.3342 21.3493 53.9849 21.744C54.6462 22.1387 55.1635 22.6773 55.5369 23.36C55.9209 24.0427 56.1129 24.8107 56.1129 25.664C56.1129 26.5173 55.9209 27.2853 55.5369 27.968C55.1635 28.6507 54.6515 29.1947 54.0009 29.6C53.3502 29.9947 52.6089 30.192 51.7769 30.192C51.1049 30.192 50.4915 30.0533 49.9369 29.776C49.3929 29.4987 48.9715 29.0987 48.6729 28.576L48.9609 28.24V33.2H47.1529ZM51.6009 28.512C52.1129 28.512 52.5662 28.3893 52.9609 28.144C53.3555 27.8987 53.6649 27.5627 53.8889 27.136C54.1235 26.6987 54.2409 26.208 54.2409 25.664C54.2409 25.12 54.1235 24.6347 53.8889 24.208C53.6649 23.7813 53.3555 23.4453 52.9609 23.2C52.5662 22.9547 52.1129 22.832 51.6009 22.832C51.0995 22.832 50.6462 22.9547 50.2409 23.2C49.8462 23.4453 49.5315 23.7813 49.2969 24.208C49.0729 24.6347 48.9609 25.12 48.9609 25.664C48.9609 26.208 49.0729 26.6987 49.2969 27.136C49.5315 27.5627 49.8462 27.8987 50.2409 28.144C50.6462 28.3893 51.0995 28.512 51.6009 28.512ZM58.0216 30V17.888H59.8296V30H58.0216ZM62.8615 33.536C62.6482 33.536 62.4348 33.5147 62.2215 33.472C62.0188 33.44 61.8322 33.3867 61.6615 33.312V31.76C61.7895 31.792 61.9442 31.8187 62.1255 31.84C62.3068 31.872 62.4828 31.888 62.6535 31.888C63.1548 31.888 63.5228 31.776 63.7575 31.552C64.0028 31.3387 64.2215 31.0027 64.4135 30.544L64.9895 29.232L64.9575 30.752L61.2135 21.344H63.1495L65.9175 28.56H65.2615L68.0135 21.344H69.9655L66.1415 30.944C65.9388 31.456 65.6828 31.904 65.3735 32.288C65.0748 32.6827 64.7175 32.9867 64.3015 33.2C63.8962 33.424 63.4162 33.536 62.8615 33.536Z" fill="#313638" fill-opacity="0.8"/>
<path d="M104 24L98 18M104 24L98 30M104 24L86 24" stroke="#313638" stroke-opacity="0.8" stroke-width="1.5" stroke-linecap="round" stroke-linejoin="round"/>
</svg>
