<svg width="75" height="75" viewBox="0 0 75 75" fill="none" xmlns="http://www.w3.org/2000/svg">
<rect width="75" height="75" rx="8" fill="#FFB2C5"/>
<path fill-rule="evenodd" clip-rule="evenodd" d="M43.25 20.5H46.75C50.0498 20.5 51.6997 20.5 52.7249 21.5251C53.75 22.5503 53.75 24.2002 53.75 27.5V54.1875H55.5C56.2249 54.1875 56.8125 54.7751 56.8125 55.5C56.8125 56.2249 56.2249 56.8125 55.5 56.8125H20.5C19.7751 56.8125 19.1875 56.2249 19.1875 55.5C19.1875 54.7751 19.7751 54.1875 20.5 54.1875H22.25V32.75C22.25 29.4502 22.25 27.8003 23.2751 26.7751C24.3003 25.75 25.9502 25.75 29.25 25.75H36.25C39.5498 25.75 41.1997 25.75 42.2249 26.7751C43.25 27.8003 43.25 29.4502 43.25 32.75V54.1875H45.875V32.75L45.875 32.5934C45.8752 31.0785 45.8754 29.6896 45.7235 28.5598C45.5562 27.3156 45.1626 26.0006 44.081 24.919C42.9995 23.8374 41.6844 23.4438 40.4402 23.2765C39.3263 23.1268 37.9605 23.1248 36.4705 23.125C36.618 22.4473 36.8642 21.936 37.2751 21.5251C38.3003 20.5 39.9502 20.5 43.25 20.5ZM26.1875 31C26.1875 30.2751 26.7751 29.6875 27.5 29.6875H38C38.7249 29.6875 39.3125 30.2751 39.3125 31C39.3125 31.7249 38.7249 32.3125 38 32.3125H27.5C26.7751 32.3125 26.1875 31.7249 26.1875 31ZM26.1875 36.25C26.1875 35.5251 26.7751 34.9375 27.5 34.9375H38C38.7249 34.9375 39.3125 35.5251 39.3125 36.25C39.3125 36.9749 38.7249 37.5625 38 37.5625H27.5C26.7751 37.5625 26.1875 36.9749 26.1875 36.25ZM26.1875 41.5C26.1875 40.7751 26.7751 40.1875 27.5 40.1875H38C38.7249 40.1875 39.3125 40.7751 39.3125 41.5C39.3125 42.2249 38.7249 42.8125 38 42.8125H27.5C26.7751 42.8125 26.1875 42.2249 26.1875 41.5ZM32.75 48.9375C33.4749 48.9375 34.0625 49.5251 34.0625 50.25V54.1875H31.4375V50.25C31.4375 49.5251 32.0251 48.9375 32.75 48.9375Z" fill="white"/>
</svg>
