<svg width="18" height="18" viewBox="0 0 18 18" fill="none" xmlns="http://www.w3.org/2000/svg">
<path d="M16.7105 7.47772L11.0855 1.85272C11.0069 1.774 10.9067 1.72037 10.7976 1.69861C10.6885 1.67685 10.5754 1.68793 10.4726 1.73045C10.3698 1.77298 10.2819 1.84503 10.22 1.93751C10.1582 2.02998 10.1251 2.13873 10.1251 2.24998V5.08709C8.30117 5.24319 6.28672 6.13616 4.62945 7.5417C2.63399 9.23483 1.39156 11.4166 1.1307 13.6849C1.11032 13.8613 1.14608 14.0395 1.23289 14.1944C1.31969 14.3492 1.45313 14.4728 1.61421 14.5474C1.77529 14.622 1.9558 14.6439 2.13006 14.61C2.30431 14.5761 2.46343 14.4881 2.58477 14.3585C3.3582 13.5351 6.11024 10.9315 10.1251 10.7022V13.5C10.1251 13.6112 10.1582 13.72 10.22 13.8125C10.2819 13.9049 10.3698 13.977 10.4726 14.0195C10.5754 14.062 10.6885 14.0731 10.7976 14.0514C10.9067 14.0296 11.0069 13.976 11.0855 13.8972L16.7105 8.27225C16.8157 8.1668 16.8748 8.02393 16.8748 7.87498C16.8748 7.72604 16.8157 7.58317 16.7105 7.47772ZM11.2501 12.1422V10.125C11.2501 9.9758 11.1908 9.83273 11.0853 9.72724C10.9798 9.62175 10.8368 9.56248 10.6876 9.56248C8.7132 9.56248 6.79016 10.0779 4.97188 11.0953C4.04582 11.6158 3.18299 12.2415 2.40055 12.96C2.80836 11.2837 3.83633 9.68975 5.35719 8.39952C6.98985 7.01506 8.9825 6.18748 10.6876 6.18748C10.8368 6.18748 10.9798 6.12822 11.0853 6.02273C11.1908 5.91724 11.2501 5.77417 11.2501 5.62498V3.60842L15.5173 7.87498L11.2501 12.1422Z" fill="#313638"/>
</svg>
