<svg width="16" height="16" viewBox="0 0 16 16" fill="none" xmlns="http://www.w3.org/2000/svg">
<path fill-rule="evenodd" clip-rule="evenodd" d="M10.2786 3.762C10.1867 3.61509 10.0512 3.5005 9.8911 3.43418C9.73099 3.36787 9.55418 3.35312 9.38529 3.392L8.18662 3.66733C8.06378 3.69556 7.93613 3.69556 7.81329 3.66733L6.61462 3.392C6.44573 3.35312 6.26892 3.36787 6.1088 3.43418C5.94869 3.5005 5.81323 3.61509 5.72129 3.762L5.06795 4.80466C5.00129 4.91133 4.91129 5.00133 4.80462 5.06866L3.76195 5.722C3.6153 5.81386 3.50088 5.94909 3.43458 6.10894C3.36827 6.26878 3.35338 6.4453 3.39195 6.614L3.66729 7.814C3.69542 7.93663 3.69542 8.06403 3.66729 8.18666L3.39195 9.386C3.35323 9.55479 3.36805 9.73145 3.43436 9.89143C3.50067 10.0514 3.61517 10.1868 3.76195 10.2787L4.80462 10.932C4.91129 10.9987 5.00129 11.0887 5.06862 11.1953L5.72195 12.238C5.90995 12.5387 6.26862 12.6873 6.61462 12.608L7.81329 12.3327C7.93613 12.3044 8.06378 12.3044 8.18662 12.3327L9.38595 12.608C9.55475 12.6467 9.73141 12.6319 9.89139 12.5656C10.0514 12.4993 10.1867 12.3848 10.2786 12.238L10.932 11.1953C10.9986 11.0887 11.0886 10.9987 11.1953 10.932L12.2386 10.2787C12.3854 10.1866 12.4999 10.0511 12.5661 9.89102C12.6322 9.73091 12.6469 9.55415 12.608 9.38533L12.3333 8.18666C12.3051 8.06382 12.3051 7.93617 12.3333 7.81333L12.6086 6.614C12.6474 6.44527 12.6327 6.26866 12.5665 6.10868C12.5003 5.94871 12.3859 5.81332 12.2393 5.72133L11.196 5.068C11.0894 5.00121 10.9994 4.91118 10.9326 4.80466L10.2786 3.762ZM9.94329 6.51333C9.98452 6.43751 9.99474 6.34865 9.97179 6.26544C9.94884 6.18224 9.89451 6.11119 9.82023 6.06723C9.74596 6.02326 9.65753 6.00983 9.57355 6.02974C9.48957 6.04966 9.41658 6.10137 9.36995 6.174L7.62662 9.12466L6.57395 8.11666C6.54272 8.0846 6.50536 8.05915 6.46408 8.04184C6.4228 8.02453 6.37846 8.0157 6.3337 8.0159C6.28894 8.0161 6.24468 8.0253 6.20356 8.04297C6.16243 8.06065 6.12529 8.08642 6.09434 8.11875C6.06339 8.15109 6.03928 8.18933 6.02342 8.23119C6.00757 8.27305 6.00032 8.31767 6.00208 8.3624C6.00385 8.40712 6.01461 8.45103 6.03372 8.49151C6.05282 8.53199 6.07988 8.5682 6.11329 8.598L7.46929 9.89733C7.50558 9.93203 7.54924 9.95809 7.59702 9.97355C7.64479 9.98901 7.69544 9.99348 7.74518 9.98662C7.79493 9.97976 7.84248 9.96175 7.88428 9.93394C7.92609 9.90612 7.96107 9.86923 7.98662 9.826L9.94329 6.51333Z" fill="#FF668B"/>
</svg>
