<svg width="18" height="18" viewBox="0 0 18 18" fill="none" xmlns="http://www.w3.org/2000/svg">
<path fill-rule="evenodd" clip-rule="evenodd" d="M1.75152 5.90621C1.34618 6.75172 1.48847 7.74061 1.77305 9.7184L1.98213 11.1714C2.34769 13.712 2.53047 14.9823 3.41177 15.7411C4.29307 16.5 5.58553 16.5 8.17044 16.5H9.82956C12.4145 16.5 13.7069 16.5 14.5882 15.7411C15.4695 14.9823 15.6523 13.712 16.0179 11.1714L16.2269 9.7184C16.5115 7.74061 16.6538 6.75172 16.2485 5.90621C15.8431 5.0607 14.9804 4.54675 13.2548 3.51886L12.2162 2.90015C10.6492 1.96672 9.86573 1.5 9 1.5C8.13427 1.5 7.35078 1.96672 5.78381 2.90015L4.74518 3.51886C3.01964 4.54675 2.15687 5.0607 1.75152 5.90621ZM6.18757 13.4998C6.18757 13.1892 6.43941 12.9373 6.75007 12.9373H11.2501C11.5607 12.9373 11.8126 13.1892 11.8126 13.4998C11.8126 13.8105 11.5607 14.0623 11.2501 14.0623H6.75007C6.43941 14.0623 6.18757 13.8105 6.18757 13.4998Z" fill="#67C7C2"/>
</svg>
