<svg width="48" height="48" viewBox="0 0 48 48" fill="none" xmlns="http://www.w3.org/2000/svg">
<g clip-path="url(#clip0_2_852)">
<rect width="48" height="48" rx="24" fill="#EBF8F6"/>
<ellipse cx="23.76" cy="20.7599" rx="10" ry="10" fill="#1C274C"/>
<ellipse cx="23.7601" cy="48.26" rx="17.5" ry="10" fill="#1C274C"/>
<path fill-rule="evenodd" clip-rule="evenodd" d="M19.7588 29.365C16.9513 29.1907 14.5781 27.5601 13.8927 25.2802L13.4494 23.8054C13.366 23.5277 13.4359 23.237 13.6415 23.0074C13.86 22.7634 14.1954 22.6234 14.5615 22.6234H15.39V23.0138C15.39 23.0218 15.39 23.0296 15.39 23.0376H14.5615C14.3449 23.0376 14.1478 23.119 14.0208 23.2608C13.9053 23.39 13.8671 23.5464 13.9136 23.7013L14.3569 25.176C14.9049 26.9989 16.6248 28.3727 18.7649 28.8149C19.08 29.0176 19.4122 29.2015 19.7588 29.365ZM27.7603 29.365C28.1077 29.2015 28.4398 29.0176 28.755 28.8149C30.8949 28.3727 32.6143 26.9989 33.1622 25.176L33.6057 23.7013C33.6524 23.5464 33.6142 23.39 33.4986 23.2608C33.3721 23.1191 33.175 23.0376 32.9575 23.0376H32.1293C32.1293 23.0296 32.1293 23.0218 32.1293 23.0138V22.6234H32.9575C33.3245 22.6234 33.6592 22.7634 33.8775 23.0074C34.084 23.237 34.1536 23.5278 34.0704 23.8055L33.6269 25.2802C32.9414 27.5601 30.5679 29.1907 27.7603 29.365Z" fill="white"/>
<path fill-rule="evenodd" clip-rule="evenodd" d="M23.7598 29.8285C19.4087 29.8285 15.8696 26.7714 15.8696 23.0139V22.1306C17.704 22.1116 19.5692 21.8457 21.4169 21.3402C22.2376 21.1156 23.025 21.0018 23.7598 21.0018C24.4938 21.0018 25.2821 21.1158 26.1019 21.3402C27.9496 21.8458 29.8143 22.1115 31.65 22.1306V23.0139C31.65 26.7714 28.1102 29.8285 23.7598 29.8285ZM23.759 22.182C22.9494 22.182 22.0881 22.3058 21.2003 22.5489C20.6474 22.7003 20.0943 22.829 19.5548 22.9326L19.6584 23.3369C20.2115 23.2307 20.779 23.0986 21.3447 22.9438C22.1866 22.7133 22.9987 22.5962 23.759 22.5962C24.5202 22.5962 25.3331 22.7133 26.175 22.9438C26.7322 23.0964 27.2989 23.2282 27.8604 23.3359L27.9641 22.9315C27.417 22.8264 26.863 22.6979 26.3194 22.5489C25.4308 22.3056 24.5694 22.182 23.759 22.182ZM32.1292 21.9904C32.1292 21.9151 32.0943 21.8468 32.0366 21.7974C32.0943 21.8468 32.1292 21.915 32.1292 21.9904Z" fill="#C7ECE7"/>
<path fill-rule="evenodd" clip-rule="evenodd" d="M23.7598 30.2428C22.3107 30.2428 20.9472 29.9247 19.7587 29.3651C19.4121 29.2016 19.08 29.0177 18.7648 28.8149C16.7236 27.5016 15.399 25.4032 15.39 23.0377C15.39 23.0297 15.39 23.0218 15.39 23.0138V21.991C15.39 21.9898 15.39 21.9887 15.39 21.9875C15.3922 21.838 15.5332 21.7174 15.7067 21.7174C17.4826 21.7129 19.2431 21.4707 20.9438 21.0324C21.0533 21.0041 21.1629 20.9751 21.2725 20.9452C21.998 20.7465 22.8603 20.5876 23.7598 20.5876C24.6595 20.5876 25.5209 20.7465 26.2472 20.9452C28.0499 21.4385 29.923 21.7127 31.8132 21.7174C31.9007 21.7174 31.9797 21.7479 32.0366 21.7974C32.0943 21.8468 32.1292 21.9151 32.1292 21.9904V22.6235V23.0138C32.1292 23.0218 32.1292 23.0297 32.1292 23.0377C32.1207 25.4032 30.7955 27.5016 28.755 28.8149C28.4398 29.0177 28.1076 29.2016 27.7602 29.3651C26.5717 29.9247 25.2083 30.2428 23.7598 30.2428ZM23.7598 21.0018C23.0251 21.0018 22.2376 21.1157 21.417 21.3401C19.5693 21.8457 17.704 22.1116 15.8696 22.1306V23.0138C15.8696 26.7714 19.4087 29.8285 23.7598 29.8285C28.1102 29.8285 31.65 26.7714 31.65 23.0138V22.1306C29.8143 22.1115 27.9496 21.8456 26.1019 21.3401C25.2822 21.1157 24.4938 21.0018 23.7598 21.0018Z" fill="white"/>
<path fill-rule="evenodd" clip-rule="evenodd" d="M19.6584 23.3369L19.5548 22.9325C20.0943 22.829 20.6473 22.6999 21.2003 22.5489C22.088 22.3054 22.9495 22.182 23.759 22.182C24.5694 22.182 25.4308 22.3054 26.3194 22.5489C26.8631 22.6977 27.417 22.8264 27.9641 22.9315L27.8604 23.3359C27.2989 23.2281 26.7323 23.0962 26.175 22.9438C25.3331 22.7132 24.5202 22.5962 23.759 22.5962C22.9987 22.5962 22.1866 22.7132 21.3447 22.9438C20.779 23.0985 20.2115 23.2307 19.6584 23.3369Z" fill="#9FDFD6"/>
</g>
<defs>
<clipPath id="clip0_2_852">
<rect width="48" height="48" rx="24" fill="white"/>
</clipPath>
</defs>
</svg>
