<svg width="32" height="32" viewBox="0 0 32 32" fill="none" xmlns="http://www.w3.org/2000/svg">
<rect width="32" height="32" rx="16" fill="white" fill-opacity="0.6"/>
<path d="M22 22L19.1047 19.1047M19.1047 19.1047C19.5999 18.6094 19.9928 18.0215 20.2608 17.3744C20.5289 16.7273 20.6668 16.0338 20.6668 15.3333C20.6668 14.6329 20.5289 13.9394 20.2608 13.2923C19.9928 12.6452 19.5999 12.0573 19.1047 11.562C18.6094 11.0668 18.0215 10.6739 17.3744 10.4059C16.7273 10.1378 16.0338 9.99988 15.3333 9.99988C14.6329 9.99988 13.9394 10.1378 13.2923 10.4059C12.6452 10.6739 12.0573 11.0668 11.562 11.562C10.5618 12.5622 9.99988 13.9188 9.99988 15.3333C9.99988 16.7479 10.5618 18.1045 11.562 19.1047C12.5622 20.1049 13.9188 20.6668 15.3333 20.6668C16.7479 20.6668 18.1045 20.1049 19.1047 19.1047Z" stroke="#01172F" stroke-linecap="round" stroke-linejoin="round"/>
</svg>
