<svg width="18" height="18" viewBox="0 0 18 18" fill="none" xmlns="http://www.w3.org/2000/svg">
<path d="M5.0625 2.25L12.9375 2.25C13.2359 2.25 13.522 2.36853 13.733 2.5795C13.944 2.79048 14.0625 3.07663 14.0625 3.375L14.0625 15.75C14.0625 15.8504 14.0355 15.9489 13.9846 16.0354C13.9336 16.1219 13.8604 16.1931 13.7726 16.2418C13.6847 16.2904 13.5855 16.3147 13.4852 16.312C13.3848 16.3094 13.287 16.2799 13.2019 16.2267L9 13.6005L4.79742 16.2267C4.71231 16.2797 4.61457 16.309 4.51432 16.3116C4.41408 16.3142 4.31497 16.2899 4.22727 16.2412C4.13957 16.1926 4.06646 16.1214 4.01551 16.0351C3.96456 15.9487 3.93763 15.8503 3.9375 15.75L3.9375 3.375C3.9375 3.07663 4.05603 2.79048 4.267 2.5795C4.47798 2.36853 4.76413 2.25 5.0625 2.25ZM5.0625 14.7354L8.70258 12.4608C8.79198 12.4049 8.89528 12.3753 9.0007 12.3753C9.10613 12.3753 9.20943 12.4049 9.29883 12.4608L12.9375 14.7354L12.9375 3.375L5.0625 3.375L5.0625 14.7354Z" fill="#313638" fill-opacity="0.8"/>
<path d="M8.96274 13.5409L9 13.5176L9.03727 13.5409L13.2391 16.1671C13.3136 16.2136 13.3992 16.2394 13.487 16.2417C13.5748 16.2441 13.6617 16.2228 13.7385 16.1803C13.8153 16.1377 13.8794 16.0754 13.924 15.9997C13.9686 15.924 13.9921 15.8378 13.9922 15.75C13.9922 15.75 13.9922 15.75 13.9922 15.75L13.9922 3.375C13.9922 3.09528 13.8811 2.82702 13.6833 2.62922C13.4855 2.43143 13.2172 2.32031 12.9375 2.32031L5.0625 2.32031C4.78278 2.32031 4.51452 2.43143 4.31672 2.62922C4.11893 2.82702 4.00781 3.09528 4.00781 3.375L4.00781 15.7499C4.00792 15.8377 4.03149 15.9238 4.07607 15.9993C4.12065 16.0749 4.18462 16.1372 4.26136 16.1797C4.3381 16.2223 4.42482 16.2435 4.51253 16.2413C4.60025 16.2391 4.68577 16.2134 4.76024 16.167L8.96274 13.5409ZM5.09976 14.795L4.99219 14.8622V14.7354L4.99219 3.375V3.30469H5.0625L12.9375 3.30469H13.0078V3.375L13.0078 14.7354V14.8623L12.9002 14.795L9.26156 12.5204C9.18334 12.4715 9.09295 12.4456 9.0007 12.4456C8.90846 12.4456 8.81807 12.4715 8.73984 12.5204L8.70258 12.4608L8.73984 12.5204L5.09976 14.795Z" stroke="#313638" stroke-opacity="0.8" stroke-width="0.140625"/>
</svg>
