<svg width="19" height="18" viewBox="0 0 19 18" fill="none" xmlns="http://www.w3.org/2000/svg">
<path d="M12.4791 7.87499C12.4791 8.02418 12.4199 8.16725 12.3144 8.27274C12.2089 8.37823 12.0658 8.43749 11.9166 8.43749H7.41663C7.26744 8.43749 7.12437 8.37823 7.01888 8.27274C6.91339 8.16725 6.85413 8.02418 6.85413 7.87499C6.85413 7.72581 6.91339 7.58273 7.01888 7.47724C7.12437 7.37175 7.26744 7.31249 7.41663 7.31249H11.9166C12.0658 7.31249 12.2089 7.37175 12.3144 7.47724C12.4199 7.58273 12.4791 7.72581 12.4791 7.87499ZM11.9166 9.56249H7.41663C7.26744 9.56249 7.12437 9.62175 7.01888 9.72724C6.91339 9.83273 6.85413 9.97581 6.85413 10.125C6.85413 10.2742 6.91339 10.4173 7.01888 10.5227C7.12437 10.6282 7.26744 10.6875 7.41663 10.6875H11.9166C12.0658 10.6875 12.2089 10.6282 12.3144 10.5227C12.4199 10.4173 12.4791 10.2742 12.4791 10.125C12.4791 9.97581 12.4199 9.83273 12.3144 9.72724C12.2089 9.62175 12.0658 9.56249 11.9166 9.56249ZM16.9791 8.99999C16.9794 10.2625 16.6528 11.5035 16.0312 12.6023C15.4095 13.7012 14.5139 14.6203 13.4317 15.2703C12.3494 15.9204 11.1172 16.2791 9.85516 16.3117C8.5931 16.3442 7.3441 16.0495 6.22975 15.4561L3.83561 16.2541C3.63739 16.3202 3.42468 16.3298 3.22131 16.2818C3.01794 16.2338 2.83196 16.1302 2.68421 15.9824C2.53646 15.8347 2.43277 15.6487 2.38478 15.4453C2.33679 15.2419 2.34638 15.0292 2.41249 14.831L3.21053 12.4369C2.68892 11.4562 2.39758 10.3695 2.35862 9.25942C2.31967 8.14932 2.53413 7.04493 2.98572 6.03009C3.43731 5.01524 4.11417 4.11661 4.96491 3.40241C5.81565 2.68821 6.81792 2.1772 7.89564 1.90818C8.97336 1.63917 10.0982 1.61921 11.1848 1.84982C12.2714 2.08043 13.2911 2.55556 14.1667 3.23913C15.0422 3.9227 15.7505 4.79675 16.2379 5.79493C16.7252 6.79312 16.9787 7.8892 16.9791 8.99999ZM15.8541 8.99999C15.8539 8.05086 15.6352 7.11451 15.2152 6.26339C14.7951 5.41227 14.1849 4.66919 13.4317 4.09164C12.6785 3.51409 11.8026 3.11756 10.8716 2.93272C9.94067 2.74788 8.97966 2.77968 8.06296 3.02568C7.14626 3.27167 6.29844 3.72526 5.58509 4.35135C4.87174 4.97743 4.31199 5.75924 3.94914 6.63627C3.58628 7.5133 3.43006 8.46206 3.49255 9.40913C3.55504 10.3562 3.83457 11.2762 4.30952 12.098C4.34938 12.1669 4.37413 12.2436 4.38213 12.3229C4.39013 12.4022 4.3812 12.4822 4.35592 12.5578L3.47913 15.1875L6.10881 14.3107C6.16609 14.2912 6.22619 14.2812 6.2867 14.2812C6.3855 14.2813 6.4825 14.3075 6.56795 14.3571C7.50859 14.9013 8.57598 15.1882 9.66272 15.1889C10.7495 15.1896 11.8172 14.9041 12.7585 14.361C13.6999 13.818 14.4816 13.0366 15.025 12.0955C15.5684 11.1544 15.8544 10.0867 15.8541 8.99999Z" fill="#313638" fill-opacity="0.8"/>
</svg>
