<svg width="12" height="12" viewBox="0 0 12 12" fill="none" xmlns="http://www.w3.org/2000/svg">
<path d="M6 1.125C5.03582 1.125 4.09329 1.41091 3.2916 1.94659C2.48991 2.48226 1.86507 3.24363 1.49609 4.13442C1.12711 5.02521 1.03057 6.00541 1.21867 6.95107C1.40678 7.89672 1.87108 8.76536 2.55286 9.44715C3.23464 10.1289 4.10328 10.5932 5.04894 10.7813C5.99459 10.9694 6.97479 10.8729 7.86558 10.5039C8.75637 10.1349 9.51775 9.51009 10.0534 8.7084C10.5891 7.90671 10.875 6.96418 10.875 6C10.8736 4.70749 10.3596 3.46831 9.44564 2.55436C8.5317 1.64042 7.29251 1.12636 6 1.125ZM10.125 6C10.1254 6.52921 10.0235 7.05351 9.825 7.54406L7.72969 6.25547C7.6406 6.20049 7.54094 6.16488 7.43719 6.15094L6.3675 6.00656C6.2201 5.98734 6.07031 6.01205 5.9369 6.07759C5.80348 6.14313 5.69238 6.24659 5.6175 6.375H5.20875L5.03063 6.00656C4.98138 5.90397 4.90932 5.81401 4.81994 5.74357C4.73057 5.67312 4.62626 5.62407 4.515 5.60016L4.14 5.51906L4.50656 4.875H5.28985C5.41659 4.87475 5.54123 4.8425 5.65219 4.78125L6.22641 4.46438C6.27686 4.43625 6.32402 4.40261 6.36703 4.36406L7.62844 3.22312C7.75491 3.10979 7.83897 2.95673 7.86675 2.78919C7.89453 2.62165 7.86437 2.44965 7.78125 2.30156L7.76438 2.27109C8.47022 2.60578 9.06667 3.13378 9.48451 3.79381C9.90235 4.45384 10.1244 5.21883 10.125 6ZM1.875 6C1.87438 5.38688 2.01117 4.78142 2.27531 4.22812L2.80688 5.64703C2.85118 5.76451 2.92426 5.86899 3.01942 5.95089C3.11459 6.03279 3.22879 6.08949 3.35156 6.11578L4.3561 6.33187L4.53469 6.70312C4.59667 6.82939 4.69272 6.93581 4.812 7.01036C4.93128 7.08491 5.06903 7.12462 5.20969 7.125H5.27906L4.94016 7.88578C4.88044 8.01974 4.86132 8.16827 4.88515 8.31299C4.90897 8.4577 4.97471 8.59226 5.07422 8.7L5.08078 8.70656L6 9.65344L5.90906 10.1222C4.8318 10.0971 3.80698 9.65203 3.05331 8.88189C2.29964 8.11175 1.87679 7.07756 1.875 6Z" fill="#BBBFCA"/>
</svg>
