<svg width="16" height="16" viewBox="0 0 16 16" fill="none" xmlns="http://www.w3.org/2000/svg">
<g clip-path="url(#clip0_2_560)">
<path d="M13.7649 8.12153L13.2107 8.02568L13.7649 8.12153ZM13.3019 10.7989L12.7477 10.703L13.3019 10.7989ZM4.55291 13.5631L3.9925 13.6115L4.55291 13.5631ZM4.01993 7.39914L4.58034 7.35068V7.35068L4.01993 7.39914ZM9.18419 3.55156L9.73928 3.64251V3.64251L9.18419 3.55156ZM8.74931 6.2058L9.3044 6.29675H9.30441L8.74931 6.2058ZM4.39565 6.47585L4.02846 6.04973L4.02846 6.04974L4.39565 6.47585ZM5.33983 5.66224L5.70702 6.08835L5.70702 6.08835L5.33983 5.66224ZM6.90247 3.26433L6.35799 3.12309V3.12309L6.90247 3.26433ZM7.21466 2.06086L7.75914 2.2021V2.2021L7.21466 2.06086ZM8.31311 1.47973L8.14107 2.01528L8.14107 2.01528L8.31311 1.47973ZM8.40825 1.51029L8.58029 0.974751L8.58029 0.97475L8.40825 1.51029ZM6.4719 4.36609L6.96805 4.63112V4.63112L6.4719 4.36609ZM9.12495 2.25619L8.58047 2.39743V2.39743L9.12495 2.25619ZM7.66119 1.52438L7.41701 1.01765V1.01765L7.66119 1.52438ZM2.60636 14.2152L2.04595 14.2636L2.60636 14.2152ZM1.96875 6.8412L2.52916 6.79274C2.50321 6.49263 2.24545 6.26623 1.9445 6.27922C1.64355 6.29221 1.40625 6.53997 1.40625 6.8412H1.96875ZM13.2107 8.02568L12.7477 10.703L13.8562 10.8947L14.3192 8.21739L13.2107 8.02568ZM8.69201 14H5.64135V15.125H8.69201V14ZM5.11332 13.5146L4.58034 7.35068L3.45952 7.4476L3.9925 13.6115L5.11332 13.5146ZM12.7477 10.703C12.4212 12.5907 10.7179 14 8.69201 14V15.125C11.2353 15.125 13.4315 13.3507 13.8562 10.8947L12.7477 10.703ZM8.62909 3.46061L8.19421 6.11485L9.30441 6.29675L9.73928 3.64251L8.62909 3.46061ZM4.76285 6.90197L5.70702 6.08835L4.97263 5.23612L4.02846 6.04973L4.76285 6.90197ZM7.44695 3.40557L7.75914 2.2021L6.67018 1.91962L6.35799 3.12309L7.44695 3.40557ZM8.14107 2.01528L8.2362 2.04584L8.58029 0.97475L8.48515 0.944188L8.14107 2.01528ZM6.96805 4.63112C7.17538 4.243 7.33637 3.83187 7.44695 3.40557L6.35799 3.12309C6.26992 3.46263 6.14153 3.79071 5.97575 4.10106L6.96805 4.63112ZM8.2362 2.04584C8.41523 2.10335 8.5398 2.24066 8.58047 2.39743L9.66943 2.11495C9.52832 1.57099 9.11226 1.14565 8.58029 0.974751L8.2362 2.04584ZM7.75914 2.2021C7.77676 2.13415 7.82659 2.06909 7.90538 2.03112L7.41701 1.01765C7.04988 1.19456 6.77347 1.52144 6.67018 1.91963L7.75914 2.2021ZM7.90538 2.03112C7.9775 1.99636 8.06297 1.99019 8.14107 2.01528L8.48515 0.944188C8.13355 0.831236 7.75002 0.857181 7.41701 1.01765L7.90538 2.03112ZM9.28836 7.4037L12.6885 7.4037V6.2787L9.28836 6.2787L9.28836 7.4037ZM3.16677 14.1667L2.52916 6.79274L1.40834 6.88965L2.04595 14.2636L3.16677 14.1667ZM2.53125 14.2427L2.53125 6.8412H1.40625L1.40625 14.2427H2.53125ZM2.04595 14.2636C2.03375 14.1225 2.14496 14 2.28815 14L2.28815 15.125C2.80588 15.125 3.21127 14.6814 3.16677 14.1667L2.04595 14.2636ZM9.73928 3.64251C9.8226 3.13401 9.7988 2.6137 9.66943 2.11495L8.58047 2.39743C8.67051 2.74455 8.68707 3.10669 8.62909 3.46061L9.73928 3.64251ZM5.64135 14C5.3669 14 5.13711 13.7897 5.11332 13.5146L3.9925 13.6115C4.06649 14.4672 4.78209 15.125 5.64135 15.125V14ZM5.70702 6.08835C6.15433 5.7029 6.64375 5.23824 6.96805 4.63112L5.97575 4.10106C5.75491 4.51449 5.40146 4.86659 4.97263 5.23612L5.70702 6.08835ZM14.3192 8.21739C14.4942 7.20555 13.7161 6.2787 12.6885 6.2787V7.4037C13.0166 7.4037 13.267 7.7001 13.2107 8.02568L14.3192 8.21739ZM2.28815 14C2.42301 14 2.53125 14.1093 2.53125 14.2427H1.40625C1.40625 14.7294 1.80049 15.125 2.28815 15.125L2.28815 14ZM8.19421 6.11485C8.08368 6.78943 8.60366 7.4037 9.28836 7.4037L9.28836 6.2787C9.28835 6.2787 9.28864 6.2787 9.28917 6.27876C9.2897 6.27882 9.29037 6.27892 9.29115 6.2791C9.29275 6.27946 9.29435 6.28002 9.2958 6.28071C9.29859 6.28204 9.30012 6.28348 9.30094 6.28444C9.30176 6.28541 9.30286 6.28707 9.30366 6.28984C9.30407 6.29129 9.30435 6.29284 9.30444 6.29435C9.30453 6.2959 9.3044 6.29679 9.3044 6.29675L8.19421 6.11485ZM4.58034 7.35068C4.5656 7.18025 4.63364 7.01331 4.76285 6.90197L4.02846 6.04974C3.62524 6.3972 3.41367 6.91736 3.45952 7.4476L4.58034 7.35068Z" fill="#313638" fill-opacity="0.8"/>
</g>
<defs>
<clipPath id="clip0_2_560">
<rect y="0.125" width="15.75" height="15.75" rx="2.95312" fill="white"/>
</clipPath>
</defs>
</svg>
