<svg width="17" height="18" viewBox="0 0 17 18" fill="none" xmlns="http://www.w3.org/2000/svg">
<g clip-path="url(#clip0_2_566)">
<path fill-rule="evenodd" clip-rule="evenodd" d="M13.4029 2.69527C12.7205 2.81666 11.7981 3.12268 10.4941 3.55734L4.07887 5.69567C3.34962 5.93874 2.85025 6.10623 2.50171 6.27361C2.15567 6.43977 2.06359 6.55843 2.02814 6.64408C1.99825 6.7163 1.98018 6.79285 1.97461 6.87081C1.96802 6.96326 1.99731 7.11057 2.23249 7.41393C2.46939 7.71951 2.84113 8.09263 3.38467 8.63616L3.57898 8.83046C3.58827 8.83975 3.59746 8.84892 3.60654 8.858C3.75478 9.00607 3.87549 9.12664 3.96978 9.26548C4.15442 9.53736 4.25923 9.85552 4.27233 10.1839C4.27902 10.3516 4.2536 10.5203 4.22238 10.7275C4.22047 10.7402 4.21854 10.753 4.21659 10.766C4.14837 11.2205 4.10086 11.5386 4.07883 11.7866C4.05693 12.0332 4.06488 12.1687 4.08665 12.2634C4.10196 12.33 4.12213 12.3948 4.14678 12.4572L13.9633 2.64062C13.8161 2.63817 13.6332 2.6543 13.4029 2.69527ZM15.2374 2.09577C15.7636 2.62196 15.7904 3.33967 15.6532 4.11079C15.517 4.87665 15.1855 5.87093 14.7688 7.12088L12.5907 13.655C12.368 14.323 12.1856 14.8703 11.9927 15.2752C11.7956 15.6889 11.542 16.056 11.1192 16.242C10.9224 16.3287 10.7114 16.3785 10.4966 16.389C10.0352 16.4117 9.64426 16.1967 9.28294 15.9149C8.92932 15.639 8.5214 15.2311 8.02344 14.7331L7.82579 14.5355C7.63047 14.3402 7.58062 14.2936 7.53123 14.2605C7.4237 14.1885 7.29891 14.1464 7.1697 14.1386C7.11036 14.135 7.04245 14.1419 6.76875 14.179L6.70315 14.1879C6.26806 14.247 5.91839 14.2944 5.63525 14.3156C5.34717 14.3371 5.0861 14.3354 4.83677 14.2744C3.96231 14.0604 3.28319 13.3717 3.08159 12.4943C3.0241 12.2442 3.02607 11.9831 3.05162 11.6954C3.07674 11.4126 3.12911 11.0636 3.19429 10.6295L3.19676 10.613C3.2365 10.3482 3.24419 10.2824 3.2419 10.225C3.23648 10.0891 3.1931 9.95739 3.11667 9.84486C3.08437 9.79729 3.03909 9.74897 2.84979 9.55967L2.62986 9.33976C2.11825 8.82818 1.69919 8.40916 1.41748 8.04577C1.12937 7.67413 0.912163 7.27149 0.945979 6.79743C0.959413 6.60909 1.00308 6.42414 1.07529 6.24967C1.25706 5.81055 1.6314 5.54755 2.0553 5.34399C2.46978 5.14495 3.032 4.95756 3.71839 4.72879L10.2121 2.56429C11.4621 2.14763 12.4564 1.81619 13.2223 1.67996C13.9934 1.54278 14.7112 1.56958 15.2374 2.09577ZM14.6925 3.36982L4.86337 13.199C4.93324 13.2294 5.00625 13.2542 5.08183 13.2727C5.17623 13.2957 5.31158 13.3056 5.55852 13.2872C5.80683 13.2687 6.12553 13.2256 6.58095 13.1638L6.63007 13.1572C6.64347 13.1553 6.65672 13.1535 6.66983 13.1517C6.88409 13.1225 7.05863 13.0988 7.23181 13.1092C7.54392 13.128 7.84539 13.2297 8.10517 13.4037C8.2493 13.5003 8.37378 13.6249 8.52658 13.7778C8.53594 13.7872 8.5454 13.7967 8.55498 13.8063L8.72772 13.979C9.25675 14.508 9.61987 14.8698 9.91722 15.1017C10.2127 15.3323 10.3567 15.3634 10.4461 15.359C10.535 15.3546 10.6223 15.334 10.7038 15.2982C10.7856 15.2621 10.9005 15.1699 11.0617 14.8316C11.2239 14.4911 11.3869 14.0052 11.6235 13.2954L13.7758 6.83888C14.2105 5.53489 14.5165 4.61254 14.6379 3.93017C14.6789 3.69993 14.695 3.51702 14.6925 3.36982Z" fill="#313638" fill-opacity="0.8"/>
</g>
<defs>
<clipPath id="clip0_2_566">
<rect width="16.5" height="16.5" fill="white" transform="translate(0.083252 0.75)"/>
</clipPath>
</defs>
</svg>
